<svg width="24" height="24" viewBox="0 0 24 24" fill="none" xmlns="http://www.w3.org/2000/svg">
<path d="M21.1409 17.2807C20.3965 16.5307 18.5937 15.4362 17.719 14.9951C16.58 14.4213 16.4862 14.3745 15.5909 15.0396C14.9937 15.4835 14.5967 15.8801 13.8978 15.731C13.1989 15.582 11.6801 14.7415 10.3503 13.4159C9.02042 12.0902 8.13121 10.5274 7.98167 9.83086C7.83214 9.1343 8.23527 8.74195 8.67496 8.14336C9.29464 7.29961 9.24777 7.15898 8.71808 6.01992C8.30511 5.13398 7.17871 3.34805 6.42589 2.60742C5.62058 1.81195 5.62058 1.95258 5.10167 2.1682C4.67921 2.34591 4.27392 2.56197 3.89089 2.81367C3.14089 3.31195 2.72464 3.72586 2.43355 4.34789C2.14246 4.96992 2.01167 6.4282 3.51496 9.15914C5.01824 11.8901 6.07292 13.2865 8.25589 15.4634C10.4389 17.6402 12.1175 18.8107 14.5714 20.187C17.607 21.8871 18.7714 21.5557 19.3953 21.2651C20.0192 20.9745 20.435 20.562 20.9342 19.812C21.1865 19.4296 21.4031 19.0247 21.5811 18.6026C21.7971 18.0855 21.9378 18.0855 21.1409 17.2807Z" stroke="#004271" stroke-miterlimit="10"/>
</svg>
