<svg width="38" height="38" viewBox="0 0 38 38" fill="none" xmlns="http://www.w3.org/2000/svg">
<g clip-path="url(#clip0_130_5198)">
<path d="M8.1429 18.9999V11.8614C8.1641 10.4582 8.46197 9.07295 9.01944 7.78508C9.57691 6.49721 10.383 5.33199 11.3916 4.35619C12.4002 3.3804 13.5914 2.61321 14.897 2.09857C16.2025 1.58394 17.5968 1.33199 19 1.35714C20.4031 1.33199 21.7974 1.58394 23.103 2.09857C24.4086 2.61321 25.5998 3.3804 26.6083 4.35619C27.6169 5.33199 28.423 6.49721 28.9805 7.78508C29.538 9.07295 29.8358 10.4582 29.857 11.8614V18.9999M24.4285 33.2498C25.8682 33.2498 27.249 32.6779 28.2671 31.6598C29.2851 30.6418 29.857 29.261 29.857 27.8213V21.7142M24.4285 33.2498C24.4285 34.1496 24.0711 35.0126 23.4348 35.6489C22.7985 36.2852 21.9355 36.6426 21.0357 36.6426H16.9643C16.0644 36.6426 15.2015 36.2852 14.5652 35.6489C13.9289 35.0126 13.5714 34.1496 13.5714 33.2498C13.5714 32.35 13.9289 31.487 14.5652 30.8507C15.2015 30.2144 16.0644 29.857 16.9643 29.857H21.0357C21.9355 29.857 22.7985 30.2144 23.4348 30.8507C24.0711 31.487 24.4285 32.35 24.4285 33.2498ZM4.0715 14.9285H6.78577C7.1457 14.9285 7.49089 15.0715 7.74541 15.326C7.99992 15.5805 8.1429 15.9257 8.1429 16.2856V24.4284C8.1429 24.7884 7.99992 25.1336 7.74541 25.3881C7.49089 25.6426 7.1457 25.7856 6.78577 25.7856H4.0715C3.35163 25.7856 2.66124 25.4996 2.15222 24.9906C1.6432 24.4815 1.35723 23.7912 1.35723 23.0713V17.6428C1.35723 16.9229 1.6432 16.2325 2.15222 15.7235C2.66124 15.2145 3.35163 14.9285 4.0715 14.9285ZM33.9285 25.7856H31.2142C30.8542 25.7856 30.5091 25.6426 30.2545 25.3881C30 25.1336 29.857 24.7884 29.857 24.4284V16.2856C29.857 15.9257 30 15.5805 30.2545 15.326C30.5091 15.0715 30.8542 14.9285 31.2142 14.9285H33.9285C34.6483 14.9285 35.3387 15.2145 35.8477 15.7235C36.3568 16.2325 36.6427 16.9229 36.6427 17.6428V23.0713C36.6427 23.7912 36.3568 24.4815 35.8477 24.9906C35.3387 25.4996 34.6483 25.7856 33.9285 25.7856Z" stroke="#004271" stroke-width="2" stroke-linecap="round" stroke-linejoin="round"/>
</g>
<defs>
<clipPath id="clip0_130_5198">
<rect width="37.9778" height="37.9778" fill="white" transform="scale(1.00058)"/>
</clipPath>
</defs>
</svg>
