<svg width="46" height="46" viewBox="0 0 46 46" fill="none" xmlns="http://www.w3.org/2000/svg">
<g clip-path="url(#clip0_130_5142)">
<path d="M16.0247 1.51292C11.4286 3.10735 7.46488 6.13364 4.71583 10.1473C1.96679 14.1609 0.577273 18.9503 0.751394 23.812C0.925514 28.6737 2.65409 33.3515 5.68322 37.1581C8.71235 40.9648 12.8824 43.6998 17.5808 44.9614C21.3899 45.9442 25.3807 45.9874 29.2101 45.0871C32.6793 44.3079 35.8865 42.6411 38.518 40.25C41.2567 37.6853 43.2446 34.4226 44.268 30.8128C45.3803 26.8872 45.5782 22.7589 44.8466 18.7449H23.4566V27.6179H35.8442C35.5966 29.0331 35.0661 30.3838 34.2843 31.5891C33.5026 32.7945 32.4857 33.8297 31.2945 34.6329C29.7818 35.6335 28.0767 36.3068 26.2884 36.6095C24.4949 36.943 22.6553 36.943 20.8619 36.6095C19.0441 36.2337 17.3245 35.4834 15.8126 34.4065C13.3838 32.6872 11.5601 30.2447 10.6017 27.4274C9.62714 24.5575 9.62714 21.446 10.6017 18.576C11.2839 16.5643 12.4116 14.7327 13.9008 13.2178C15.6049 11.4523 17.7624 10.1904 20.1365 9.57038C22.5106 8.95038 25.0096 8.99629 27.3594 9.70307C29.1949 10.2665 30.8735 11.251 32.2612 12.5781C33.658 11.1885 35.0524 9.79531 36.4444 8.39854C37.1631 7.64745 37.9466 6.93229 38.6545 6.16323C36.5362 4.19197 34.0498 2.65809 31.3376 1.64948C26.3988 -0.143839 20.9948 -0.192033 16.0247 1.51292Z" fill="white"/>
<path d="M16.0244 1.51295C20.994 -0.193154 26.398 -0.146229 31.3373 1.64592C34.0499 2.66139 36.5353 4.20265 38.6506 6.18124C37.9319 6.9503 37.1736 7.66905 36.4404 8.41655C35.0461 9.80853 33.6529 11.1957 32.2609 12.5781C30.8732 11.2511 29.1946 10.2666 27.359 9.70311C25.0101 8.99385 22.5111 8.94529 20.1364 9.56275C17.7616 10.1802 15.6028 11.4398 13.8969 13.2034C12.4077 14.7183 11.28 16.55 10.5978 18.5617L3.14795 12.7937C5.81454 7.50575 10.4316 3.46085 16.0244 1.51295Z" fill="#E33629"/>
<path d="M1.17169 18.5078C1.57211 16.5233 2.23689 14.6015 3.14825 12.7937L10.5981 18.576C9.62352 21.446 9.62352 24.5575 10.5981 27.4275C8.11601 29.3441 5.63273 31.2704 3.14825 33.2062C0.866762 28.6648 0.170947 23.4905 1.17169 18.5078Z" fill="#F8BD00"/>
<path d="M23.4562 18.7415H44.8462C45.5779 22.7554 45.3799 26.8837 44.2676 30.8093C43.2442 34.4191 41.2563 37.6818 38.5176 40.2465C36.1134 38.3705 33.6984 36.509 31.2942 34.633C32.4861 33.829 33.5035 32.7926 34.2853 31.586C35.0671 30.3793 35.5972 29.0273 35.8438 27.6108H23.4562C23.4526 24.6568 23.4562 21.6991 23.4562 18.7415Z" fill="#587DBD"/>
<path d="M3.14453 33.2062C5.62901 31.2896 8.11229 29.3633 10.5944 27.4275C11.5547 30.2457 13.381 32.6884 15.8125 34.4066C17.3291 35.4784 19.0524 36.2226 20.8725 36.5916C22.666 36.925 24.5056 36.925 26.2991 36.5916C28.0873 36.2889 29.7925 35.6156 31.3052 34.615C33.7094 36.4909 36.1244 38.3525 38.5286 40.2284C35.8976 42.6209 32.6903 44.2889 29.2208 45.0692C25.3913 45.9695 21.4005 45.9263 17.5914 44.9434C14.5788 44.139 11.7648 42.721 9.32578 40.7783C6.74425 38.7287 4.63578 36.1458 3.14453 33.2062Z" fill="#319F43"/>
</g>
<defs>
<clipPath id="clip0_130_5142">
<rect width="46" height="46" fill="white"/>
</clipPath>
</defs>
</svg>
