<svg width="24" height="24" viewBox="0 0 24 24" fill="none" xmlns="http://www.w3.org/2000/svg">
<path d="M18.5999 4.80005C19.3956 4.80005 20.1586 5.11612 20.7212 5.67873C21.2838 6.24134 21.5999 7.0044 21.5999 7.80005V17.4C21.5999 18.1957 21.2838 18.9588 20.7212 19.5214C20.1586 20.084 19.3956 20.4 18.5999 20.4H5.3999C4.60425 20.4 3.84119 20.084 3.27858 19.5214C2.71597 18.9588 2.3999 18.1957 2.3999 17.4V7.80005C2.3999 7.0044 2.71597 6.24134 3.27858 5.67873C3.84119 5.11612 4.60425 4.80005 5.3999 4.80005H18.5999ZM20.3999 9.55325L12.3047 14.3172C12.2282 14.3622 12.1426 14.3896 12.0542 14.3975C11.9658 14.4054 11.8768 14.3935 11.7935 14.3628L11.6951 14.3172L3.5999 9.55565V17.4C3.5999 17.8774 3.78954 18.3353 4.12711 18.6728C4.46468 19.0104 4.92251 19.2 5.3999 19.2H18.5999C19.0773 19.2 19.5351 19.0104 19.8727 18.6728C20.2103 18.3353 20.3999 17.8774 20.3999 17.4V9.55325ZM18.5999 6.00005H5.3999C4.92251 6.00005 4.46468 6.18969 4.12711 6.52726C3.78954 6.86482 3.5999 7.32266 3.5999 7.80005V8.16245L11.9999 13.104L20.3999 8.16005V7.80005C20.3999 7.32266 20.2103 6.86482 19.8727 6.52726C19.5351 6.18969 19.0773 6.00005 18.5999 6.00005Z" fill="#004271"/>
</svg>
