<svg width="40" height="40" viewBox="0 0 40 40" fill="none" xmlns="http://www.w3.org/2000/svg">
<g clip-path="url(#clip0_130_5215)">
<path d="M37.3883 16.2571C37.4077 12.9021 37.116 9.55257 36.5169 6.25143C36.2512 4.78857 36.0398 3.19429 34.994 2.14C34.6969 1.84 34.3512 1.63714 33.974 1.67143C32.5826 1.8 31.0912 2.18572 30.0312 2.47714C28.7969 2.82 27.3826 3.51429 26.0026 4.17429C25.4058 4.45836 24.7277 4.52212 24.0883 4.35429L14.0369 1.75429C12.2883 1.34286 9.60262 2.02286 7.95119 2.47714C6.91691 2.76286 5.75976 3.29429 4.60262 3.84857C4.18548 4.04857 3.83119 4.56 3.56262 5.08C3.09691 5.98 2.90548 6.98572 2.72834 7.98286L2.58548 8.77714C1.42467 15.3002 1.42467 21.977 2.58548 28.5C2.85976 30.0229 3.03691 31.7314 4.19405 32.7571C4.47405 33.0057 4.79405 33.1543 5.13691 33.0886C6.18834 32.8886 7.26548 32.4571 8.41405 32.0629C10.1026 31.4857 11.7912 30.8343 13.3569 30.4057C13.802 30.2837 14.2718 30.2837 14.7169 30.4057L18.0369 31.2657" stroke="#004271" stroke-width="2" stroke-linecap="round" stroke-linejoin="round"/>
<path d="M14.4684 30.3886C14.2653 30.3393 14.0574 30.3125 13.8484 30.3086V2.11427C13.8484 1.99427 13.8551 1.87523 13.8684 1.75713L24.3656 4.3857C24.6646 4.45808 24.9646 4.47999 25.2656 4.45142V15.5371M31.0199 27.9486V27.5143M38.2856 27.8028C38.2856 33.4686 31.7284 38.3743 31.0227 38.3743C30.3141 38.3743 23.757 33.4686 23.757 27.8028C23.757 25.8762 24.5223 24.0285 25.8847 22.6662C27.247 21.3039 29.0947 20.5386 31.0213 20.5386C32.9479 20.5386 34.7956 21.3039 36.1579 22.6662C37.5202 24.0285 38.2856 25.8762 38.2856 27.8028Z" stroke="#004271" stroke-width="2" stroke-linecap="round" stroke-linejoin="round"/>
</g>
<defs>
<clipPath id="clip0_130_5215">
<rect width="39.9766" height="39.9766" fill="white" transform="scale(1.00058)"/>
</clipPath>
</defs>
</svg>
