<svg width="128" height="24" viewBox="0 0 128 24" fill="none" xmlns="http://www.w3.org/2000/svg">
<path d="M23.25 9.45H14.6625L12 1.125L9.3375 9.45H0.75L7.6875 14.5875L5.0625 22.875L12 17.7375L18.9375 22.875L16.275 14.55L23.25 9.45Z" fill="#FFCE31"/>
<path d="M49.25 9.45H40.6625L38 1.125L35.3375 9.45H26.75L33.6875 14.5875L31.0625 22.875L38 17.7375L44.9375 22.875L42.275 14.55L49.25 9.45Z" fill="#FFCE31"/>
<path d="M75.25 9.45H66.6625L64 1.125L61.3375 9.45H52.75L59.6875 14.5875L57.0625 22.875L64 17.7375L70.9375 22.875L68.275 14.55L75.25 9.45Z" fill="#FFCE31"/>
<path d="M101.25 9.45H92.6625L90 1.125L87.3375 9.45H78.75L85.6875 14.5875L83.0625 22.875L90 17.7375L96.9375 22.875L94.275 14.55L101.25 9.45Z" fill="#FFCE31"/>
<path d="M127.25 9.45H118.662L116 1.125L113.337 9.45H104.75L111.688 14.5875L109.062 22.875L116 17.7375L122.938 22.875L120.275 14.55L127.25 9.45Z" fill="#FFCE31"/>
</svg>
