<svg width="24" height="24" viewBox="0 0 24 24" fill="none" xmlns="http://www.w3.org/2000/svg">
<path d="M12 20C14.1217 20 16.1566 19.1571 17.6569 17.6569C19.1571 16.1566 20 14.1217 20 12C20 9.87827 19.1571 7.84344 17.6569 6.34315C16.1566 4.84285 14.1217 4 12 4C9.87827 4 7.84344 4.84285 6.34315 6.34315C4.84285 7.84344 4 9.87827 4 12C4 14.1217 4.84285 16.1566 6.34315 17.6569C7.84344 19.1571 9.87827 20 12 20ZM12 22C6.477 22 2 17.523 2 12C2 6.477 6.477 2 12 2C17.523 2 22 6.477 22 12C22 17.523 17.523 22 12 22Z" fill="#004271"/>
<path d="M17 8.94701C16.632 9.10701 16.237 9.21701 15.822 9.26501C16.246 9.01501 16.57 8.61901 16.724 8.14801C16.3196 8.38279 15.8789 8.5484 15.42 8.63801C15.2269 8.43558 14.9945 8.27462 14.7372 8.16493C14.4798 8.05524 14.2028 7.99913 13.923 8.00001C12.79 8.00001 11.872 8.90501 11.872 10.02C11.872 10.178 11.8897 10.3313 11.925 10.48C11.1123 10.4417 10.3165 10.2342 9.58848 9.87089C8.86048 9.50758 8.21626 8.99639 7.697 8.37001C7.51538 8.67746 7.4194 9.02793 7.419 9.38501C7.419 10.085 7.782 10.705 8.332 11.066C8.00658 11.0549 7.68819 10.9683 7.402 10.813V10.838C7.40509 11.3075 7.5708 11.7613 7.87092 12.1224C8.17103 12.4834 8.587 12.7292 9.048 12.818C8.7454 12.8983 8.42867 12.9099 8.121 12.852C8.25526 13.2558 8.51184 13.6078 8.85516 13.8592C9.19848 14.1106 9.61152 14.2489 10.037 14.255C9.30682 14.8173 8.41059 15.1212 7.489 15.119C7.32367 15.119 7.16067 15.1097 7 15.091C7.9404 15.6865 9.03094 16.0017 10.144 16C13.918 16 15.981 12.922 15.981 10.252L15.974 9.99001C16.3758 9.70667 16.7233 9.35338 17 8.94701Z" fill="#004271"/>
</svg>
