<svg width="40" height="40" viewBox="0 0 40 40" fill="none" xmlns="http://www.w3.org/2000/svg">
<g clip-path="url(#clip0_130_5206)">
<path d="M20.1726 7.03741e-05C20.8276 7.03741e-05 21.4726 0.0425207 22.0726 0.142404C22.6637 0.218463 23.2469 0.347158 23.8151 0.526954C24.3817 0.696755 24.9434 0.915666 25.5001 1.18369C26.0426 1.44088 26.6001 1.75552 27.1576 2.09762C28.1001 2.69691 29.0276 3.18135 29.9726 3.5684C31.8325 4.31363 33.7999 4.75623 35.8001 4.87936C36.8117 4.95427 37.8592 4.99256 38.9426 4.99423V14.9825C38.9426 16.8787 38.7001 18.6815 38.2151 20.3912C37.7491 22.0797 37.0871 23.7081 36.2426 25.243C35.4017 26.7759 34.4065 28.2192 33.2726 29.5505C32.1219 30.9127 30.8754 32.1911 29.5426 33.376C28.1909 34.5629 26.7692 35.6678 25.2851 36.6847C23.7984 37.7168 22.3034 38.6682 20.8001 39.5388L20.2001 39.8959L19.6001 39.5388C18.0579 38.6473 16.5518 37.6952 15.0851 36.6847C13.593 35.6787 12.1706 34.5733 10.8276 33.376C9.49556 32.191 8.2499 30.9126 7.10007 29.5505C5.96995 28.2129 4.97041 26.7706 4.11507 25.243C3.28572 23.7009 2.62444 22.0743 2.14257 20.3912C1.65773 18.6295 1.41715 16.8096 1.42757 14.9825V4.99423C2.5109 4.99256 3.55924 4.95427 4.57257 4.87936C5.57188 4.81151 6.56467 4.66878 7.54257 4.45236C8.50007 4.23761 9.45757 3.95295 10.4001 3.5684C11.3778 3.17362 12.3155 2.68613 13.2001 2.1126C14.3001 1.39843 15.4151 0.871551 16.5151 0.524457C17.6998 0.162104 18.9336 -0.0147876 20.1726 7.03741e-05ZM36.4276 7.44886C34.5352 7.35634 32.6605 7.04034 30.8426 6.50746C29.0349 5.96746 27.3128 5.17469 25.7276 4.15271C24.9051 3.61486 24.0126 3.19224 23.0751 2.89668C22.138 2.61441 21.1638 2.47467 20.1851 2.48217C19.1991 2.47616 18.2176 2.61585 17.2726 2.89668C16.334 3.18343 15.4427 3.60665 14.6276 4.15271C13.039 5.17924 11.3126 5.97542 9.50007 6.51744C7.7284 7.03184 5.8709 7.34648 3.92757 7.46134V14.995C3.92757 16.6481 4.14257 18.2362 4.57257 19.7595C5.01102 21.2718 5.61465 22.7314 6.37257 24.1119C7.13989 25.5066 8.04435 26.8216 9.07257 28.0373C10.1151 29.2633 11.2276 30.4045 12.4276 31.4882C13.6276 32.572 14.8851 33.5758 16.2001 34.4997C17.5284 35.4253 18.8567 36.2718 20.1851 37.0392C21.545 36.2499 22.8704 35.4026 24.1576 34.4997C25.4828 33.5783 26.7471 32.5724 27.9426 31.4882C29.1426 30.4045 30.2576 29.2633 31.3001 28.0373C32.3283 26.8216 33.2328 25.5066 34.0001 24.1119C34.7542 22.7329 35.3488 21.2727 35.7726 19.7595C36.2161 18.2104 36.4366 16.6062 36.4276 14.995V7.44886Z" fill="#004271"/>
<path fill-rule="evenodd" clip-rule="evenodd" d="M29.4926 11.7588L28.3926 10.8149L27.3776 10.9023L16.4776 23.7572L12.7651 18.4634L11.7651 18.2936L10.6076 19.1202L10.4351 20.119L15.2076 26.926L15.7501 27.2257L16.8926 27.2956L17.4776 27.0409L29.5651 12.7701L29.4926 11.7588Z" fill="#004271"/>
</g>
<defs>
<clipPath id="clip0_130_5206">
<rect width="40" height="39.9533" fill="white"/>
</clipPath>
</defs>
</svg>
